<svg xmlns="http://www.w3.org/2000/svg" width="2243" height="707" viewBox="0 0 2243 707" fill="none"><g stroke="#fff" stroke-width=".5" clip-path="url(#a)"><g opacity=".1"><path d="M224 85c88.5 83.667 345.6 253.9 666 265.5C1290.5 365 1094 53 1514 53s231 466.5 729.5 474"/><path d="M204.5 107.5c88.5 83.667 345.6 253.9 666 265.5 400.5 14.5 204-297.5 624-297.5s231 466.5 729.5 474"/><path d="M185 130c88.5 83.667 345.6 253.9 666 265.5C1251.5 410 1055 98 1475 98s231 466.5 729.5 474"/><path d="M165.5 152.5c88.5 83.667 345.6 253.9 666 265.5 400.5 14.5 204-297.5 624-297.5s231 466.5 729.5 474"/><path d="M146 175c88.5 83.667 345.6 253.9 666 265.5C1212.5 455 1016 143 1436 143s231 466.5 729.5 474"/><path d="M126.5 197.5c88.5 83.667 345.6 253.9 666 265.5 400.5 14.5 204-297.5 624-297.5s231 466.5 729.5 474"/><path d="M107 220c88.5 83.667 345.6 253.9 666 265.5C1173.5 500 977 188 1397 188s231 466.5 729.5 474"/><path d="M87.5 242.5c88.5 83.667 345.6 253.9 666 265.5 400.5 14.5 204-297.5 624-297.5s231 466.5 729.5 474"/><path d="M68 265c88.5 83.667 345.6 253.9 666 265.5C1134.5 545 938 233 1358 233s231 466.5 729.5 474"/></g><g opacity=".1"><path d="M2020.5 32c-88.5 83.667-345.6 253.9-666 265.5C954 312 1150.5 0 730.5 0S499.5 466.5 1 474"/><path d="M2040 54.5c-88.5 83.667-345.6 253.9-666 265.5-400.5 14.5-204-297.5-624-297.5S519 489 20.5 496.5"/><path d="M2059.5 77c-88.5 83.667-345.6 253.9-666 265.5C993 357 1189.5 45 769.5 45S538.5 511.5 40 519"/><path d="M2079 99.5c-88.5 83.667-345.6 253.9-666 265.5-400.5 14.5-204-297.5-624-297.5S558 534 59.5 541.5"/><path d="M2098.5 122c-88.5 83.667-345.6 253.9-666 265.5C1032 402 1228.5 90 808.5 90S577.5 556.5 79 564"/><path d="M2118 144.5c-88.5 83.667-345.6 253.9-666 265.5-400.5 14.5-204-297.5-624-297.5S597 579 98.5 586.5"/><path d="M2137.5 167c-88.5 83.667-345.6 253.9-666 265.5C1071 447 1267.5 135 847.5 135S616.5 601.5 118 609"/><path d="M2157 189.5c-88.5 83.667-345.6 253.9-666 265.5-400.5 14.5-204-297.5-624-297.5S636 624 137.5 631.5"/><path d="M2176.5 212c-88.5 83.667-345.6 253.9-666 265.5C1110 492 1306.5 180 886.5 180S655.5 646.5 157 654"/></g></g><defs><clipPath id="a"><path fill="#fff" d="M0 0h2243v707H0z"/></clipPath></defs></svg>
