<svg xmlns="http://www.w3.org/2000/svg" viewBox="0 0 50 50" fill="none"><path stroke="#fff" stroke-linecap="round" stroke-linejoin="round" stroke-width="3" d="M27.38 43.75c-4.864-3.034-8.104-8.433-8.104-14.59a5.727 5.727 0 1 1 11.451 0 5.727 5.727 0 1 0 11.451 0c0-9.49-7.69-17.183-17.174-17.183-9.485 0-17.175 7.693-17.175 17.183 0 2.115.236 4.175.672 6.16m9.187 6.97a22.798 22.798 0 0 1-4.14-13.13c0-6.327 5.127-11.455 11.45-11.455 6.323 0 11.45 5.128 11.45 11.455m.62 11.425c-.206.011-.408.03-.617.03-6.323 0-11.449-5.128-11.449-11.455m15.984-15.667C37.082 9.058 31.374 6.25 25.001 6.25c-6.373 0-12.082 2.808-15.986 7.243"/></svg>
