<svg xmlns="http://www.w3.org/2000/svg" width="50" height="50" fill="none"><path fill="#fff" d="M25 4.167C13.5 4.167 4.167 13.5 4.167 25 4.167 36.5 13.5 45.834 25 45.834c11.5 0 20.833-9.334 20.833-20.834S36.5 4.167 25 4.167Zm9.667 14.167c-.313 3.291-1.667 11.291-2.355 14.979-.291 1.562-.874 2.083-1.416 2.146-1.209.104-2.125-.792-3.292-1.563-1.833-1.208-2.875-1.958-4.646-3.125-2.062-1.354-.729-2.104.459-3.312.312-.313 5.645-5.167 5.75-5.604a.416.416 0 0 0-.105-.375c-.125-.105-.291-.063-.437-.042-.188.042-3.104 1.979-8.792 5.812-.833.563-1.583.855-2.25.834-.75-.021-2.166-.417-3.229-.771-1.312-.417-2.333-.646-2.25-1.375.042-.375.563-.75 1.542-1.146 6.083-2.646 10.125-4.396 12.146-5.23 5.791-2.416 6.979-2.832 7.77-2.832.167 0 .563.041.813.25.208.166.27.395.292.562-.021.125.02.5 0 .792Z"/></svg>