<svg xmlns="http://www.w3.org/2000/svg" width="50" height="50" fill="none"><path fill="#fff" d="M39.688 10.23a20.45 20.45 0 0 0-14.605-6.063c-11.375 0-20.645 9.27-20.645 20.646 0 3.646.958 7.187 2.75 10.312L4.27 45.834l10.937-2.875a20.651 20.651 0 0 0 9.875 2.52c11.375 0 20.646-9.27 20.646-20.645 0-5.521-2.146-10.709-6.041-14.604ZM25.082 41.98c-3.083 0-6.104-.834-8.75-2.396l-.625-.375-6.5 1.708 1.73-6.333-.417-.646a17.217 17.217 0 0 1-2.625-9.125c0-9.458 7.708-17.167 17.166-17.167 4.584 0 8.896 1.792 12.125 5.042a17.045 17.045 0 0 1 5.021 12.146c.042 9.458-7.666 17.146-17.125 17.146ZM34.5 29.146c-.52-.25-3.063-1.5-3.52-1.687-.48-.167-.813-.25-1.168.25-.354.52-1.333 1.687-1.625 2.02-.291.355-.604.396-1.125.126-.52-.25-2.187-.813-4.145-2.563-1.542-1.375-2.563-3.062-2.875-3.583-.292-.521-.042-.792.229-1.063.229-.229.52-.604.77-.896.25-.291.355-.52.521-.854.167-.354.084-.646-.041-.896s-1.167-2.791-1.584-3.833c-.416-1-.854-.875-1.166-.896h-1c-.354 0-.896.125-1.375.646-.459.52-1.792 1.77-1.792 4.313 0 2.541 1.854 5 2.104 5.333.25.354 3.646 5.562 8.813 7.792a25.19 25.19 0 0 0 2.937 1.083c1.23.396 2.355.333 3.25.208 1-.146 3.063-1.25 3.48-2.458.437-1.208.437-2.23.291-2.458-.146-.23-.458-.334-.979-.584Z"/></svg>