<svg xmlns="http://www.w3.org/2000/svg" width="195" height="19" fill="none"><path fill="url(#a)" d="M5.699 13.406v-3.1h10.994v3.1H5.7Zm8.192-12.14 7.344 15.2H16.97L10.665 2.869h1.231L5.614 16.467H1.327l7.364-15.2h5.2Z"/><path fill="url(#b)" d="M21.945 4.915h3.926l.786 4.499v7.053h-3.948v-7.62l-.764-3.932Zm9.232-.325c1.16 0 2.144.223 2.95.67a4.341 4.341 0 0 1 1.868 1.864c.439.81.658 1.776.658 2.898v6.445h-3.948v-5.878c0-.959-.247-1.682-.742-2.168-.496-.5-1.203-.75-2.123-.75-.65 0-1.217.135-1.698.405a2.769 2.769 0 0 0-1.104 1.115c-.254.473-.381 1.04-.381 1.702l-1.253-.628c.156-1.23.503-2.263 1.04-3.1.552-.838 1.231-1.473 2.038-1.906a5.555 5.555 0 0 1 2.695-.669Z"/><path fill="url(#c)" d="M38.423 4.915h3.926l.786 4.499v7.053h-3.948v-7.62l-.764-3.932Zm9.232-.325c1.16 0 2.144.223 2.95.67a4.342 4.342 0 0 1 1.868 1.864c.439.81.658 1.776.658 2.898v6.445h-3.948v-5.878c0-.959-.247-1.682-.742-2.168-.496-.5-1.203-.75-2.123-.75-.65 0-1.217.135-1.698.405a2.769 2.769 0 0 0-1.103 1.115c-.255.473-.383 1.04-.383 1.702l-1.252-.628c.156-1.23.503-2.263 1.04-3.1.552-.838 1.231-1.473 2.038-1.906a5.555 5.555 0 0 1 2.695-.669Z"/><path fill="url(#d)" d="m66.51 16.467-.531-4.195.573-1.581-.573-1.56.53-4.216h4.097l-.743 5.776.743 5.776h-4.097Zm.976-5.776c-.213 1.23-.616 2.303-1.21 3.222a6.506 6.506 0 0 1-2.25 2.128c-.905.5-1.924.75-3.056.75-1.189 0-2.236-.257-3.141-.77a5.551 5.551 0 0 1-2.102-2.128c-.509-.919-.764-1.986-.764-3.202s.255-2.277.764-3.182A5.513 5.513 0 0 1 57.83 5.36c.905-.514 1.952-.77 3.14-.77 1.133 0 2.152.256 3.057.77a6.324 6.324 0 0 1 2.25 2.107c.608.906 1.012 1.98 1.21 3.223Zm-8.533 0c0 .621.135 1.175.404 1.661.269.473.636.852 1.103 1.136.481.27 1.033.405 1.656.405s1.21-.135 1.762-.405a4.978 4.978 0 0 0 1.485-1.136c.425-.486.743-1.04.955-1.661a4.704 4.704 0 0 0-.955-1.642 4.57 4.57 0 0 0-1.485-1.135 3.799 3.799 0 0 0-1.762-.425c-.623 0-1.175.141-1.656.425-.467.27-.834.649-1.103 1.135-.27.473-.404 1.02-.404 1.642Z"/><path fill="url(#e)" d="M86.235 1.267c1.867 0 3.502.317 4.903.952 1.4.635 2.49 1.52 3.268 2.655.792 1.135 1.189 2.466 1.189 3.993 0 1.513-.397 2.844-1.189 3.992-.778 1.135-1.868 2.02-3.269 2.655-1.4.635-3.035.953-4.902.953h-7.769v-15.2h7.769Zm-3.778 13.64-1.953-1.825h6.028c1.019 0 1.903-.176 2.653-.527.75-.351 1.33-.838 1.74-1.459.41-.635.616-1.378.616-2.23 0-.864-.205-1.607-.616-2.229-.41-.621-.99-1.108-1.74-1.459s-1.635-.527-2.653-.527h-6.028l1.953-1.824v12.08Z"/><path fill="url(#f)" d="M104.679 16.79c-1.528 0-2.865-.256-4.011-.77-1.147-.513-2.038-1.229-2.675-2.147-.636-.92-.955-1.98-.955-3.182 0-1.216.319-2.277.955-3.182.637-.919 1.529-1.635 2.675-2.148 1.16-.514 2.497-.77 4.011-.77 1.528 0 2.865.256 4.011.77 1.161.513 2.059 1.229 2.696 2.148.637.905.955 1.966.955 3.182s-.318 2.283-.955 3.202c-.637.905-1.535 1.614-2.696 2.128-1.146.513-2.483.77-4.011.77Zm0-2.836c.778 0 1.436-.129 1.974-.386.552-.27.969-.648 1.252-1.134.297-.487.446-1.068.446-1.743 0-.676-.149-1.257-.446-1.743-.283-.487-.7-.858-1.252-1.115-.538-.27-1.196-.405-1.974-.405-.75 0-1.401.135-1.953.405a2.869 2.869 0 0 0-1.273 1.115c-.297.486-.446 1.067-.446 1.743 0 .675.149 1.256.446 1.743.297.486.722.864 1.273 1.135.552.256 1.203.385 1.953.385Z"/><path fill="url(#g)" d="M113.662 4.915h3.926l.786 4.499v7.053h-3.948v-7.62l-.764-3.932Zm9.232-.325c1.161 0 2.144.223 2.951.67a4.341 4.341 0 0 1 1.867 1.864c.439.81.658 1.776.658 2.898v6.445h-3.947v-5.878c0-.959-.248-1.682-.743-2.168-.496-.5-1.203-.75-2.123-.75-.651 0-1.217.135-1.698.405a2.768 2.768 0 0 0-1.103 1.115c-.255.473-.382 1.04-.382 1.702l-1.253-.628c.156-1.23.503-2.263 1.04-3.1.552-.838 1.231-1.473 2.038-1.906a5.555 5.555 0 0 1 2.695-.669Z"/><path fill="url(#h)" d="M144.89 11.664a4.754 4.754 0 0 1-1.189 2.675c-.665.77-1.528 1.371-2.589 1.803-1.047.433-2.229.649-3.545.649-1.457 0-2.745-.257-3.862-.77-1.118-.514-1.989-1.23-2.611-2.149-.623-.918-.934-1.979-.934-3.181 0-1.203.311-2.263.934-3.182.622-.919 1.493-1.635 2.611-2.148 1.117-.514 2.405-.77 3.862-.77 1.316 0 2.498.216 3.545.648 1.061.432 1.924 1.034 2.589 1.804a4.674 4.674 0 0 1 1.189 2.675h-3.927c-.155-.743-.544-1.31-1.167-1.703-.608-.391-1.351-.587-2.229-.587-.693 0-1.301.128-1.825.385a2.809 2.809 0 0 0-1.189 1.114c-.283.487-.424 1.075-.424 1.764 0 .689.141 1.276.424 1.763.283.486.68.858 1.189 1.114.524.257 1.132.386 1.825.386.892 0 1.642-.203 2.25-.608.609-.42.991-.98 1.146-1.682h3.927Z"/><path fill="url(#i)" d="M153.761 16.79c-1.529 0-2.866-.256-4.012-.77-1.146-.513-2.037-1.229-2.674-2.147-.637-.92-.955-1.98-.955-3.182 0-1.216.318-2.277.955-3.182.637-.919 1.528-1.635 2.674-2.148 1.161-.514 2.498-.77 4.012-.77 1.528 0 2.865.256 4.011.77 1.16.513 2.059 1.229 2.696 2.148.636.905.955 1.966.955 3.182s-.319 2.283-.955 3.202c-.637.905-1.536 1.614-2.696 2.128-1.146.513-2.483.77-4.011.77Zm0-2.836c.778 0 1.436-.129 1.974-.386.551-.27.969-.648 1.252-1.134.297-.487.445-1.068.445-1.743 0-.676-.148-1.257-.445-1.743-.283-.487-.701-.858-1.252-1.115-.538-.27-1.196-.405-1.974-.405-.75 0-1.401.135-1.953.405a2.863 2.863 0 0 0-1.273 1.115c-.298.486-.446 1.067-.446 1.743 0 .675.148 1.256.446 1.743a2.99 2.99 0 0 0 1.273 1.135c.552.256 1.203.385 1.953.385Z"/><path fill="url(#j)" d="m170.166 14.704-1.379-.02 4.372-9.77h4.202l-5.709 11.553h-4.478l-5.71-11.552h4.351l4.351 9.788Z"/><path fill="url(#k)" d="m189.048 16.467-.531-4.195.573-1.581-.573-1.56.531-4.216h4.096l-.743 5.776.743 5.776h-4.096Zm.976-5.776c-.212 1.23-.616 2.303-1.21 3.222a6.5 6.5 0 0 1-2.25 2.128c-.905.5-1.924.75-3.056.75-1.188 0-2.236-.257-3.141-.77a5.544 5.544 0 0 1-2.101-2.128c-.51-.919-.764-1.986-.764-3.202s.254-2.277.764-3.182a5.506 5.506 0 0 1 2.101-2.148c.905-.514 1.953-.77 3.141-.77 1.132 0 2.151.256 3.056.77a6.318 6.318 0 0 1 2.25 2.107c.609.906 1.012 1.98 1.21 3.223Zm-8.532 0c0 .621.134 1.175.403 1.661.269.473.637.852 1.104 1.136.481.27 1.033.405 1.655.405.623 0 1.21-.135 1.762-.405a4.985 4.985 0 0 0 1.486-1.136 4.94 4.94 0 0 0 .955-1.661 4.724 4.724 0 0 0-.955-1.642 4.576 4.576 0 0 0-1.486-1.135 3.8 3.8 0 0 0-1.762-.425c-.622 0-1.174.141-1.655.425a2.91 2.91 0 0 0-1.104 1.135c-.269.473-.403 1.02-.403 1.642Z"/><defs><linearGradient id="a" x1="5.264" x2="200.106" y1="-.633" y2="18.106" gradientUnits="userSpaceOnUse"><stop stop-color="#fff"/><stop offset=".245" stop-color="#A8A8A8"/><stop offset=".38" stop-color="#fff"/><stop offset=".688" stop-color="#888"/><stop offset=".953" stop-color="#fff"/></linearGradient><linearGradient id="b" x1="5.264" x2="200.106" y1="-.633" y2="18.106" gradientUnits="userSpaceOnUse"><stop stop-color="#fff"/><stop offset=".245" stop-color="#A8A8A8"/><stop offset=".38" stop-color="#fff"/><stop offset=".688" stop-color="#888"/><stop offset=".953" stop-color="#fff"/></linearGradient><linearGradient id="c" x1="5.264" x2="200.106" y1="-.633" y2="18.106" gradientUnits="userSpaceOnUse"><stop stop-color="#fff"/><stop offset=".245" stop-color="#A8A8A8"/><stop offset=".38" stop-color="#fff"/><stop offset=".688" stop-color="#888"/><stop offset=".953" stop-color="#fff"/></linearGradient><linearGradient id="d" x1="5.264" x2="200.106" y1="-.633" y2="18.106" gradientUnits="userSpaceOnUse"><stop stop-color="#fff"/><stop offset=".245" stop-color="#A8A8A8"/><stop offset=".38" stop-color="#fff"/><stop offset=".688" stop-color="#888"/><stop offset=".953" stop-color="#fff"/></linearGradient><linearGradient id="e" x1="5.264" x2="200.106" y1="-.633" y2="18.106" gradientUnits="userSpaceOnUse"><stop stop-color="#fff"/><stop offset=".245" stop-color="#A8A8A8"/><stop offset=".38" stop-color="#fff"/><stop offset=".688" stop-color="#888"/><stop offset=".953" stop-color="#fff"/></linearGradient><linearGradient id="f" x1="5.264" x2="200.106" y1="-.633" y2="18.106" gradientUnits="userSpaceOnUse"><stop stop-color="#fff"/><stop offset=".245" stop-color="#A8A8A8"/><stop offset=".38" stop-color="#fff"/><stop offset=".688" stop-color="#888"/><stop offset=".953" stop-color="#fff"/></linearGradient><linearGradient id="g" x1="5.264" x2="200.106" y1="-.633" y2="18.106" gradientUnits="userSpaceOnUse"><stop stop-color="#fff"/><stop offset=".245" stop-color="#A8A8A8"/><stop offset=".38" stop-color="#fff"/><stop offset=".688" stop-color="#888"/><stop offset=".953" stop-color="#fff"/></linearGradient><linearGradient id="h" x1="5.264" x2="200.106" y1="-.633" y2="18.106" gradientUnits="userSpaceOnUse"><stop stop-color="#fff"/><stop offset=".245" stop-color="#A8A8A8"/><stop offset=".38" stop-color="#fff"/><stop offset=".688" stop-color="#888"/><stop offset=".953" stop-color="#fff"/></linearGradient><linearGradient id="i" x1="5.264" x2="200.106" y1="-.633" y2="18.106" gradientUnits="userSpaceOnUse"><stop stop-color="#fff"/><stop offset=".245" stop-color="#A8A8A8"/><stop offset=".38" stop-color="#fff"/><stop offset=".688" stop-color="#888"/><stop offset=".953" stop-color="#fff"/></linearGradient><linearGradient id="j" x1="5.264" x2="200.106" y1="-.633" y2="18.106" gradientUnits="userSpaceOnUse"><stop stop-color="#fff"/><stop offset=".245" stop-color="#A8A8A8"/><stop offset=".38" stop-color="#fff"/><stop offset=".688" stop-color="#888"/><stop offset=".953" stop-color="#fff"/></linearGradient><linearGradient id="k" x1="5.264" x2="200.106" y1="-.633" y2="18.106" gradientUnits="userSpaceOnUse"><stop stop-color="#fff"/><stop offset=".245" stop-color="#A8A8A8"/><stop offset=".38" stop-color="#fff"/><stop offset=".688" stop-color="#888"/><stop offset=".953" stop-color="#fff"/></linearGradient></defs></svg>